PathFileType	4	(x/y/z)	S08_P20_T11
DataRate	CameraRate	NumFrames	NumMarkers	Units	OrigDataRate	OrigDataStartFrame	OrigNumFrames
240	240	11	51	mm	240	338	386
Frame#	Time	Sternum			R.Acromium			L.Acromium			Top.Head			R.ASIS			L.ASIS			R.PSIS			L.PSIS			R.Great.Tro			L.Great.Tro			R.Iliac.Crest			L.Iliac.Crest			V.Sacral			R.Thigh.Upper.Post			R.Thigh.Lower.Ant			R.Thigh.Lower.Post			R.Thigh.Upper.Ant			R.Knee.Lat			R.Knee.Med			R.Shank.Upper.Post			R.Shank.Lower.Ant			R.Shank.Lower.Post			R.Shank.Upper.Ant			R.Ankle.Lat			R.Ankle.Med			R.Heel.Upper			R.Heel.Med			R.Heel.Lat			R.Toe.Lat			R.Toe.Med			R.Toe.Tip			L.Thigh.Upper.Post			L.Thigh.Lower.Ant			L.Thigh.Lower.Post			L.Thigh.Upper.Ant			L.Knee.Lat			L.Knee.Med			L.Shank.Upper.Post			L.Shank.Lower.Ant			L.Shank.Lower.Post			L.Shank.Upper.Ant			L.Ankle.Lat			L.Ankle.Med			L.Heel.Upper			L.Heel.Med			L.Heel.Lat			L.Toe.Lat			L.Toe.Med			L.Toe.Tip			Cervical.Spine			Back			
		X1	Y1	Z1	X2	Y2	Z2	X3	Y3	Z3	X4	Y4	Z4	X5	Y5	Z5	X6	Y6	Z6	X7	Y7	Z7	X8	Y8	Z8	X9	Y9	Z9	X10	Y10	Z10	X11	Y11	Z11	X12	Y12	Z12	X13	Y13	Z13	X14	Y14	Z14	X15	Y15	Z15	X16	Y16	Z16	X17	Y17	Z17	X18	Y18	Z18	X19	Y19	Z19	X20	Y20	Z20	X21	Y21	Z21	X22	Y22	Z22	X23	Y23	Z23	X24	Y24	Z24	X25	Y25	Z25	X26	Y26	Z26	X27	Y27	Z27	X28	Y28	Z28	X29	Y29	Z29	X30	Y30	Z30	X31	Y31	Z31	X32	Y32	Z32	X33	Y33	Z33	X34	Y34	Z34	X35	Y35	Z35	X36	Y36	Z36	X37	Y37	Z37	X38	Y38	Z38	X39	Y39	Z39	X40	Y40	Z40	X41	Y41	Z41	X42	Y42	Z42	X43	Y43	Z43	X44	Y44	Z44	X45	Y45	Z45	X46	Y46	Z46	X47	Y47	Z47	X48	Y48	Z48	X49	Y49	Z49	X50	Y50	Z50	X51	Y51	Z51	

338	1.4042	517.96	1220.1	298.58	401.61	1457.1	477.31	390.18	1488.2	142.87	403.78	1777	335.33	485.91	1013.5	407.25	482.38	1009.7	175.77	283.38	1028	340.05	286.08	1033.3	246.48	437.06	904.36	482.36	383.43	906.05	112.81	388.68	1076.9	456.7	389.61	1090.7	149.91	270.36	989.51	291.65	491.45	703.91	468.35	598.84	642.86	432.51	530.02	624.62	446.06	564.29	729.16	454.9	604.22	545.64	425	570.15	535.36	300.81	590.53	353.71	436.28	664.87	308.24	411.56	609.39	278.52	428.33	646.3	383.76	420.54	652.59	112.42	393.72	677.1	137.29	313.83	620.1	60.209	343.56	640.91	40.371	315.98	633.42	38.178	377.81	NaN	NaN	NaN	814.03	108.45	306.28	867.29	146.74	352.92	326.36	712.64	130.21	390.67	607.28	158.85	323.87	621.11	153.59	393.54	693.4	133.47	311.59	517.84	176.68	320.48	518.6	302.52	202.96	356.59	182.05	244.79	255.22	206.07	180.82	287.69	200.9	261.73	327.85	187.98	157.72	114.92	222.27	180.91	115.32	307.75	98.257	88.963	271.02	108.15	51.685	299.79	103.35	62.755	236.03	277.27	39.425	200.26	297.64	36.895	315.41	362.71	47.801	266.81	328.48	1514.5	305.38	282.42	1233.1	305.63
339	1.4083	523.48	1219.3	298.93	406.74	1456.2	477.57	395.64	1487.4	143.11	409.02	1776.2	335.59	491.51	1012.7	407.5	487.93	1008.8	175.96	288.96	1027.2	340.32	291.68	1032.4	246.8	442.61	903.55	482.57	388.69	905.36	112.99	394.34	1076.1	456.95	395.21	1090	150.15	275.94	988.69	291.91	496.61	703.08	468.29	603.96	641.92	432.36	535.1	623.75	445.84	569.56	728.21	455.04	609.22	544.68	424.68	575.08	534.54	300.49	596.04	352.66	435.82	670.51	307.42	410.97	615.14	277.51	427.75	651.71	382.89	420.05	659	111.65	393.08	683.25	136.62	313.09	626.63	59.441	342.9	647.49	39.604	315.34	640.07	37.493	377.21	NaN	NaN	NaN	820.34	108.29	305.41	873.49	146.86	351.97	331.26	712.12	130.6	395.46	606.62	159.01	328.67	620.59	153.95	398.43	692.76	133.68	316.13	517.35	176.94	325.29	518.02	302.74	206.15	357.13	182.17	246.96	255.35	206.14	183.31	288.44	200.96	264.63	327.8	188.1	158.44	115.88	222.23	181.69	116.13	307.7	98.778	90.24	271.01	108.41	52.966	299.82	103.67	63.968	236.02	277.35	39.365	200.29	297.79	36.927	315.39	362.92	47.436	266.79	333.75	1513.7	305.57	287.91	1232.2	305.75
340	1.4125	529	1218.5	299.29	411.87	1455.4	477.86	401.11	1486.6	143.36	414.26	1775.5	335.87	497.15	1011.9	407.75	493.5	1008	176.14	294.57	1026.4	340.6	297.31	1031.6	247.13	448.2	902.76	482.77	393.99	904.7	113.19	400.05	1075.3	457.21	400.84	1089.2	150.4	281.56	987.9	292.19	501.81	702.27	468.19	609.11	641	432.19	540.24	622.91	445.57	574.9	727.29	455.15	614.24	543.74	424.34	580.09	533.77	300.16	601.35	351.64	435.33	675.88	306.54	410.39	620.59	276.52	427.17	656.94	381.97	419.55	664.84	110.88	392.45	688.89	135.88	312.36	632.52	58.771	342.25	653.38	38.887	314.72	646.02	36.886	376.61	NaN	NaN	NaN	826.06	107.83	304.56	879.16	146.59	351.04	336.27	711.58	131.01	400.41	605.97	159.18	333.63	620.04	154.32	403.45	692.13	133.9	320.86	516.85	177.19	330.28	517.41	302.97	209.5	357.7	182.27	249.25	255.5	206.2	185.94	289.24	201	267.67	327.77	188.21	159.23	116.93	222.17	182.53	117.03	307.62	99.356	91.65	270.97	108.71	54.381	299.82	104.04	65.3	236	277.43	39.304	200.32	297.95	36.982	315.37	363.14	47.072	266.77	339.02	1513	305.78	293.42	1231.3	305.88
341	1.4167	534.55	1217.8	299.66	417	1454.7	478.17	406.58	1485.9	143.63	419.49	1774.8	336.14	502.83	1011.1	407.99	499.11	1007.3	176.33	300.21	1025.6	340.89	302.98	1030.9	247.47	453.83	902	482.97	399.33	904.05	113.4	405.81	1074.5	457.46	406.48	1088.5	150.64	287.2	987.13	292.47	507.05	701.5	468.03	614.31	640.11	432	545.42	622.1	445.28	580.28	726.4	455.23	619.28	542.82	423.98	585.18	533.05	299.82	606.45	350.65	434.83	680.98	305.6	409.8	625.73	275.54	426.58	662.02	381.01	419.03	670.14	110.09	391.82	694.03	135.07	311.64	637.78	58.199	341.61	658.6	38.22	314.11	651.29	36.356	376.03	NaN	NaN	NaN	831.22	107.07	303.72	884.33	145.93	350.12	341.4	711.01	131.46	405.53	605.33	159.36	338.74	619.48	154.72	408.61	691.51	134.15	325.78	516.34	177.46	335.46	516.79	303.19	213.01	358.31	182.37	251.66	255.7	206.25	188.7	290.1	201.03	270.86	327.77	188.3	160.08	118.06	222.08	183.45	118.01	307.5	100	93.204	270.9	109.04	55.94	299.81	104.45	66.761	235.95	277.53	39.243	200.35	298.12	37.062	315.35	363.36	46.712	266.75	344.3	1512.2	306.01	298.94	1230.4	306.03
342	1.4208	540.1	1217.1	300.05	422.14	1453.9	478.49	412.05	1485.2	143.92	424.72	1774.1	336.43	508.54	1010.4	408.24	504.74	1006.6	176.5	305.88	1024.9	341.18	308.68	1030.1	247.83	459.5	901.25	483.15	404.73	903.42	113.63	411.63	1073.8	457.72	412.13	1087.9	150.87	292.87	986.4	292.75	512.32	700.77	467.84	619.55	639.23	431.79	550.63	621.32	444.95	585.71	725.53	455.27	624.33	541.91	423.62	590.33	532.38	299.47	611.36	349.68	434.31	685.82	304.6	409.2	630.59	274.57	425.99	666.93	380.01	418.5	674.93	109.29	391.22	698.69	134.2	310.94	642.44	57.726	340.99	663.18	37.605	313.53	655.92	35.904	375.48	NaN	NaN	NaN	835.83	106.02	302.9	889.01	144.89	349.21	346.66	710.42	131.94	410.81	604.69	159.55	344.02	618.89	155.13	413.89	690.89	134.4	330.9	515.82	177.72	340.83	516.15	303.41	216.69	358.97	182.45	254.19	255.94	206.27	191.61	291.03	201.04	274.19	327.8	188.38	161.01	119.28	221.96	184.45	119.07	307.34	100.72	94.908	270.8	109.43	57.654	299.78	104.92	68.359	235.88	277.63	39.182	200.37	298.29	37.171	315.34	363.58	46.358	266.73	349.59	1511.5	306.26	304.48	1229.6	306.19
343	1.425	545.68	1216.5	300.46	427.28	1453.2	478.84	417.51	1484.5	144.24	429.95	1773.5	336.71	514.29	1009.7	408.48	510.41	1005.9	176.68	311.59	1024.2	341.47	314.42	1029.4	248.19	465.2	900.52	483.32	410.17	902.82	113.87	417.51	1073.1	457.99	417.81	1087.3	151.11	298.58	985.7	293.04	517.63	700.06	467.61	624.81	638.38	431.55	555.87	620.57	444.6	591.18	724.7	455.28	629.4	541.03	423.24	595.55	531.75	299.12	616.09	348.75	433.78	690.43	303.55	408.61	635.18	273.61	425.41	671.7	378.97	417.96	679.24	108.47	390.64	702.89	133.27	310.26	646.53	57.351	340.4	667.14	37.043	312.98	659.94	35.53	374.96	NaN	NaN	NaN	839.91	104.7	302.09	893.24	143.5	348.31	352.03	709.82	132.45	416.26	604.06	159.75	349.46	618.3	155.56	419.31	690.29	134.67	336.21	515.3	177.99	346.4	515.49	303.61	220.53	359.68	182.52	256.84	256.23	206.27	194.66	292.02	201.03	277.68	327.86	188.43	162.02	120.6	221.8	185.55	120.22	307.15	101.53	96.771	270.67	109.88	59.532	299.73	105.45	70.102	235.79	277.74	39.123	200.4	298.48	37.311	315.33	363.79	46.013	266.72	354.87	1510.9	306.54	310.04	1228.8	306.37
344	1.4292	551.26	1215.9	300.87	432.44	1452.6	479.2	422.98	1483.9	144.56	435.17	1773	337	520.08	1009.1	408.73	516.11	1005.3	176.86	317.33	1023.5	341.77	320.2	1028.7	248.55	470.95	899.81	483.49	415.67	902.24	114.14	423.44	1072.4	458.26	423.5	1086.7	151.34	304.32	985.04	293.34	522.96	699.38	467.35	630.1	637.54	431.3	561.14	619.84	444.23	596.69	723.89	455.26	634.47	540.17	422.85	600.81	531.16	298.76	620.65	347.85	433.25	694.81	302.46	408.03	639.52	272.68	424.85	676.32	377.91	417.41	683.09	107.66	390.1	706.66	132.29	309.61	650.09	57.074	339.84	670.52	36.537	312.48	663.38	35.233	374.48	NaN	NaN	NaN	843.52	103.12	301.29	897.04	141.76	347.41	357.53	709.19	132.98	421.89	603.44	159.94	355.07	617.68	156	424.86	689.7	134.96	341.73	514.77	178.24	352.16	514.83	303.79	224.55	360.44	182.57	259.62	256.57	206.25	197.86	293.09	201	281.31	327.96	188.46	163.13	122.01	221.62	186.75	121.47	306.91	102.43	98.803	270.52	110.4	61.585	299.66	106.06	72.001	235.68	277.85	39.068	200.42	298.67	37.484	315.32	364.01	45.679	266.71	360.16	1510.2	306.84	315.61	1228	306.57
345	1.4333	556.86	1215.3	301.29	437.6	1451.9	479.59	428.43	1483.4	144.91	440.39	1772.4	337.29	525.91	1008.5	408.97	521.84	1004.7	177.04	323.1	1022.9	342.08	326.01	1028.1	248.91	476.74	899.13	483.65	421.23	901.68	114.41	429.43	1071.8	458.53	429.21	1086.1	151.56	310.09	984.42	293.64	528.33	698.74	467.07	635.41	636.73	431.02	566.42	619.15	443.85	602.23	723.11	455.21	639.55	539.34	422.46	606.09	530.61	298.41	625.05	346.98	432.73	698.98	301.34	407.46	643.62	271.77	424.32	680.82	376.82	416.86	686.53	106.83	389.6	710.04	131.27	309	653.17	56.892	339.32	673.38	36.088	312.01	666.31	35.012	374.04	NaN	NaN	NaN	846.67	101.3	300.51	900.46	139.72	346.53	363.16	708.56	133.53	427.69	602.83	160.13	360.84	617.06	156.44	430.55	689.13	135.24	347.45	514.24	178.49	358.12	514.15	303.95	228.74	361.26	182.61	262.54	256.98	206.2	201.22	294.23	200.95	285.11	328.11	188.47	164.33	123.53	221.41	188.07	122.82	306.63	103.45	101.01	270.33	111	63.824	299.58	106.74	74.066	235.55	277.97	39.019	200.44	298.88	37.693	315.32	364.22	45.357	266.71	365.45	1509.6	307.16	321.2	1227.3	306.78
346	1.4375	562.48	1214.8	301.73	442.78	1451.4	479.99	433.87	1482.9	145.28	445.61	1771.9	337.58	531.76	1008	409.22	527.61	1004.2	177.22	328.9	1022.3	342.39	331.86	1027.5	249.28	482.57	898.48	483.81	426.86	901.15	114.7	435.48	1071.2	458.81	434.95	1085.6	151.79	315.89	983.83	293.94	533.71	698.13	466.77	640.72	635.94	430.73	571.71	618.49	443.46	607.79	722.36	455.12	644.63	538.54	422.06	611.38	530.09	298.06	629.31	346.14	432.22	702.96	300.2	406.91	647.51	270.89	423.81	685.18	375.72	416.31	689.59	106.01	389.13	713.06	130.21	308.42	655.8	56.8	338.86	675.76	35.698	311.6	668.76	34.864	373.65	NaN	NaN	NaN	849.42	99.281	299.75	903.52	137.41	345.65	368.92	707.9	134.1	433.67	602.23	160.32	366.8	616.42	156.89	436.39	688.57	135.54	353.39	513.7	178.73	364.29	513.45	304.08	233.12	362.14	182.63	265.6	257.44	206.11	204.75	295.45	200.87	289.06	328.29	188.44	165.65	125.16	221.16	189.52	124.27	306.3	104.59	103.41	270.12	111.69	66.261	299.48	107.53	76.305	235.41	278.1	38.978	200.46	299.12	37.94	315.32	364.43	45.048	266.71	370.74	1509.1	307.51	326.8	1226.6	307.02
347	1.4417	568.1	1214.4	302.16	447.97	1450.8	480.41	439.3	1482.4	145.67	450.83	1771.5	337.88	537.66	1007.5	409.48	533.42	1003.8	177.42	334.74	1021.8	342.7	337.74	1026.9	249.64	488.43	897.87	483.97	432.55	900.65	115	441.57	1070.7	459.09	440.71	1085.2	152.01	321.73	983.3	294.25	539.12	697.56	466.47	646.05	635.17	430.43	577.01	617.87	443.07	613.37	721.64	455.01	649.71	537.76	421.66	616.65	529.6	297.71	633.44	345.35	431.72	706.77	299.04	406.38	651.22	270.04	423.35	689.44	374.62	415.77	692.33	105.2	388.72	715.75	129.13	307.89	658.05	56.794	338.44	677.71	35.368	311.23	670.8	34.785	373.32	NaN	NaN	NaN	851.81	97.082	299.02	906.27	134.85	344.79	374.82	707.24	134.67	439.83	601.65	160.49	372.93	615.76	157.33	442.37	688.02	135.84	359.54	513.17	178.94	370.68	512.75	304.19	237.69	363.08	182.63	268.81	257.98	205.98	208.45	296.76	200.78	293.19	328.53	188.37	167.09	126.9	220.88	191.11	125.83	305.93	105.87	106	269.88	112.5	68.905	299.37	108.42	78.73	235.26	278.24	38.95	200.47	299.37	38.225	315.32	364.63	44.753	266.72	376.03	1508.6	307.88	332.42	1226	307.27
348	1.4458	573.75	1214.1	302.6	453.19	1450.4	480.84	444.71	1482	146.07	456.05	1771.1	338.19	543.58	1007	409.75	539.27	1003.4	177.63	340.6	1021.3	343.01	343.64	1026.4	249.99	494.32	897.29	484.14	438.3	900.16	115.31	447.69	1070.2	459.38	446.5	1084.8	152.24	327.6	982.81	294.55	544.54	697.04	466.17	651.37	634.43	430.11	582.3	617.28	442.69	618.96	720.96	454.87	654.79	537.01	421.27	621.89	529.12	297.38	637.45	344.59	431.26	710.43	297.88	405.87	654.76	269.23	422.93	693.59	373.53	415.24	694.77	104.41	388.35	718.17	128.03	307.42	659.96	56.868	338.08	679.3	35.1	310.92	672.48	34.769	373.03	NaN	NaN	NaN	853.87	94.739	298.32	908.74	132.1	343.96	380.86	706.56	135.26	446.19	601.08	160.65	379.24	615.1	157.77	448.49	687.5	136.14	365.92	512.64	179.14	377.29	512.02	304.26	242.46	364.09	182.61	272.19	258.59	205.81	212.35	298.16	200.66	297.51	328.82	188.26	168.67	128.75	220.56	192.86	127.5	305.52	107.32	108.8	269.61	113.44	71.768	299.25	109.43	81.352	235.09	278.39	38.939	200.48	299.65	38.551	315.32	364.82	44.472	266.73	381.32	1508.1	308.27	338.05	1225.4	307.54
